<?xml version="1.0" encoding="UTF-8"?>
<svg width="255px" height="240px" viewBox="0 0 255 240" version="1.1" xmlns="http://www.w3.org/2000/svg" xmlns:xlink="http://www.w3.org/1999/xlink">
    <!-- Generator: Sketch 50 (54983) - http://www.bohemiancoding.com/sketch -->
    <title>Everest_V1</title>
    <desc>Created with Sketch.</desc>
    <defs></defs>
    <g id="Everest_V1" stroke="none" stroke-width="1" fill="none" fill-rule="evenodd">
        <g id="Group" transform="translate(20.000000, 0.000000)" fill-rule="nonzero">
            <polygon id="Shape" fill="#FFFFFF" points="42.4169935 136.692183 52.9607843 122.013828 61.1830065 96.4715582 79.9490196 76.7233764 102.100654 0.0965681263 125.31634 53.547026 139.63268 63.7832474 146.452288 81.8414871 156.028758 94.1056391 159.801307 113.177844 180.598693 137.706148 221.854902 159.144272 112.69281 214.332956 0.0967320261 158.130307"></polygon>
            <polygon id="Shape" fill="#BFC0C8" points="103.6 209.794254 110.226144 199.171761 104.32549 193.570809 127.686275 177.395648 117.819608 176.864523 124.300654 133.070878 124.784314 128.33904 121.882353 126.455961 121.205229 118.102818 120.189542 115.205775 120.189542 104.148724 116.70719 95.1196044 116.70719 84.2074061 118.496732 77.0613648 114.917647 64.990349 110.226144 54.7541276 110.226144 49.1048922 104.518954 42.4899756 102.63268 34.3299689 102.63268 26.4596666 102.63268 12.3607202 102.100654 0.0965681263 79.9490196 76.7233764 61.1830065 96.4715582 52.9607843 122.013828 42.4169935 136.692183 0.0967320261 158.130307"></polygon>
            <polygon id="Shape" fill="#5F6D7D" points="102.63268 12.3607202 86.2366013 64.7972128 92.7176471 62.4312937 86.2366013 84.2074061 90.0091503 84.2074061 86.2366013 101.058544 101.084967 76.5302401 100.939869 61.7070327 94.4588235 68.5633697 100.746405 55.4301045 101.762092 45.7250078 92.379085 54.5609914 98.3764706 42.827964 101.616993 33.1228673 97.8444444 33.1228673 102.63268 26.4596666"></polygon>
            <polygon id="Shape" fill="#5F6D7D" points="115.594771 58.6651367 114.047059 39.3997955 107.566013 18.2996599 125.848366 64.990349 119.85098 54.5609914"></polygon>
            <polygon id="Shape" fill="#5F6D7D" points="127.347712 61.2241921 131.797386 73.1503557 140.503268 75.709411 137.746405 67.6942565"></polygon>
            <polygon id="Shape" fill="#5F6D7D" points="121.205229 75.709411 118.496732 77.0613648 114.385621 64.1212359"></polygon>
            <polygon id="Shape" fill="#5F6D7D" points="112.499346 61.2241921 112.499346 75.709411 107.566013 73.4883441"></polygon>
            <polygon id="Shape" fill="#5F6D7D" points="120.189542 83.0003046 122.946405 97.3406713 127.347712 101.734521 125.848366 94.9264682 130.443137 105.16269 141.518954 107.19062 129.233987 93.0916738 124.639216 83.8694177"></polygon>
            <polygon id="Shape" fill="#5F6D7D" points="136.392157 83.8694177 142.534641 99.0306135 139.487582 85.5593599 150.563399 106.176655 152.449673 103.279611 153.271895 115.736899 169.184314 145.190178 170.877124 140.265203 181.082353 162.572441 207.2 157.45433 197.139869 155.764388 198.34902 152.867344 185.532026 147.411245 185.532026 150.984265 157.383007 116.074888 154.819608 97.6786598 143.743791 86.4284731 143.405229 80.9723739 136.392157 79.9584086"></polygon>
            <polygon id="Shape" fill="#5F6D7D" points="141.518954 113.177844 144.082353 136.692183 166.427451 155.233263 149.547712 134.181412 147.661438 126.600814 145.775163 130.028982"></polygon>
            <polygon id="Shape" fill="#5F6D7D" points="148.870588 152.674208 128.895425 117.088853 127.347712 119.116784 123.623529 107.19062 126.52549 128.33904 128.750327 123.70377"></polygon>
            <polygon id="Shape" fill="#5F6D7D" points="150.756863 159.482261 161.639216 167.304279 177.503268 167.304279 164.105882 164.069247 155.496732 157.937171 157.044444 161.558475"></polygon>
            <polygon id="Shape" fill="#5F6D7D" points="73.1294118 185.02453 92.572549 182.127486 106.018301 174.981445 117.819608 176.864523 133.92549 172.277537 151.433987 172.277537 130.878431 155.90924 124.300654 133.070878 112.499346 145.673019 121.882353 126.455961 121.205229 118.102818 114.385621 128.483892 120.189542 115.205775 120.189542 104.148724 117.819608 112.501867 114.385621 115.398911 111 128.821881 112.257516 111.82589 108.775163 113.177844 113.224837 105.838666 113.224837 95.9404335 102.63268 108.059733 112.499346 90.0014937 112.257516 83.0003046 107.566013 86.2353368 107.566013 78.2684664 90.1542484 102.265646 99.730719 98.1615004 94.4588235 107.19062 87.4457516 108.397722 79.0784314 121.241283 70.0339869 129.932414 84.0117647 126.79395 67.6640523 136.161058 61.3281046 143.162247 69.8888889 143.983076 35.5973856 158.806284 32.0183007 162.620725 70.0339869 175.51257 63.8915033 178.554466 85.4143791 177.395648"></polygon>
            <polygon id="Shape" fill="#5F6D7D" points="20.7490196 155.233263 29.6 155.233263 30.6156863 158.99942 76.5150327 119.792761 86.2366013 88.9875284 64.0849673 119.647909 75.6928105 97.3406713 69.0183007 101.058544 80.0941176 81.8414871 63.8915033 97.0026829 56.2013072 119.30992 59.8287582 117.233705 45.3189542 137.175023 49.0431373 137.36816"></polygon>
            <polygon id="Shape" fill="#BFC0C8" points="116.94902 195.936728 134.022222 179.761567 143.743791 178.409613 133.68366 185.02453 116.94902 201.730816 121.398693 194.729627"></polygon>
            <polygon id="Shape" fill="#555151" points="0.0967320261 182.900031 0.0967320261 158.130307 112.69281 214.332956 112.69281 239.392385"></polygon>
            <polygon id="Shape" fill="#A9A8A6" points="221.854902 159.144272 221.854902 185.02453 112.69281 239.392385 112.69281 214.332956"></polygon>
            <g transform="translate(137.359477, 170.442743)" id="Shape">
                <path d="M2.2248366,0.193136253 L0.193464052,13.5678217 C0.193464052,13.5678217 2.61176471,16.8994221 4.98169935,13.5678217 C4.40130719,10.9604823 2.2248366,0.193136253 2.2248366,0.193136253 Z" fill="#6DC290"></path>
                <path d="M2.2248366,0.289704379 C2.2248366,0.241420316 2.2248366,0.193136253 2.2248366,0.193136253 L0.193464052,13.5678217 C0.193464052,13.5678217 1.06405229,14.7749233 2.27320261,15.0163436 L2.27320261,0.289704379 L2.2248366,0.289704379 Z" fill="#43A26B"></path>
            </g>
            <g transform="translate(31.921569, 155.957524)" id="Shape">
                <path d="M1.78954248,0.289704379 L0.0967320261,11.443323 C0.0967320261,11.443323 2.07973856,14.1955146 4.0627451,11.443323 C3.62745098,9.27054013 1.78954248,0.289704379 1.78954248,0.289704379 Z" fill="#6DC290"></path>
                <path d="M1.78954248,0.386272505 C1.78954248,0.337988442 1.78954248,0.289704379 1.78954248,0.289704379 L0.0967320261,11.443323 C0.0967320261,11.443323 0.822222222,12.4090042 1.8379085,12.6504245 L1.8379085,0.386272505 L1.78954248,0.386272505 Z" fill="#43A26B"></path>
            </g>
            <g transform="translate(22.732026, 148.232074)" id="Shape">
                <path d="M1.78954248,0.434556568 L0.193464052,10.9121983 C0.193464052,10.9121983 2.07973856,13.5195377 3.91764706,10.9121983 C3.48235294,8.83598356 1.78954248,0.434556568 1.78954248,0.434556568 Z" fill="#6DC290"></path>
                <path d="M1.78954248,0.531124695 C1.78954248,0.482840632 1.78954248,0.434556568 1.78954248,0.434556568 L0.193464052,10.9121983 C0.193464052,10.9121983 0.870588235,11.8295955 1.8379085,12.0227317 L1.8379085,0.531124695 L1.78954248,0.531124695 Z" fill="#43A26B"></path>
            </g>
            <g transform="translate(143.647059, 165.614337)" id="Shape">
                <path d="M1.54771242,0.241420316 L0.0967320261,9.60852857 C0.0967320261,9.60852857 1.78954248,11.9261636 3.43398693,9.60852857 C3.04705882,7.77373417 1.54771242,0.241420316 1.54771242,0.241420316 Z" fill="#6DC290"></path>
                <path d="M1.54771242,0.337988442 C1.54771242,0.289704379 1.54771242,0.241420316 1.54771242,0.241420316 L0.0967320261,9.60852857 C0.0967320261,9.60852857 0.725490196,10.4293576 1.54771242,10.6224939 L1.54771242,0.337988442 Z" fill="#43A26B"></path>
            </g>
            <g transform="translate(163.960784, 165.614337)" id="Shape">
                <path d="M1.25751634,0.241420316 L0,8.54627918 C0,8.54627918 1.49934641,10.6224939 2.9503268,8.54627918 C2.61176471,6.95290509 1.25751634,0.241420316 1.25751634,0.241420316 Z" fill="#6DC290"></path>
                <path d="M1.25751634,0.337988442 C1.25751634,0.289704379 1.25751634,0.289704379 1.25751634,0.289704379 L0,8.59456324 C0,8.59456324 0.532026144,9.31882419 1.30588235,9.46367638 L1.30588235,0.337988442 L1.25751634,0.337988442 Z" fill="#43A26B"></path>
            </g>
            <g transform="translate(164.444444, 157.888887)" id="Shape">
                <path d="M1.35424837,0.434556568 L0.338562092,6.95290509 C0.338562092,6.95290509 1.49934641,8.59456324 2.66013072,6.95290509 C2.41830065,5.64923539 1.35424837,0.434556568 1.35424837,0.434556568 Z" fill="#6DC290"></path>
                <path d="M1.35424837,0.482840632 C1.35424837,0.434556568 1.35424837,0.434556568 1.35424837,0.434556568 L0.338562092,6.95290509 C0.338562092,6.95290509 0.773856209,7.53231385 1.35424837,7.62888198 L1.35424837,0.482840632 Z" fill="#43A26B"></path>
            </g>
            <g transform="translate(166.862745, 164.165815)" id="Shape">
                <path d="M1.40261438,0.0965681263 L0.386928105,6.61491665 C0.386928105,6.61491665 1.54771242,8.2565748 2.70849673,6.61491665 C2.51503268,5.31124695 1.40261438,0.0965681263 1.40261438,0.0965681263 Z" fill="#6DC290"></path>
                <path d="M1.45098039,0.144852189 C1.45098039,0.0965681263 1.45098039,0.0965681263 1.45098039,0.0965681263 L0.435294118,6.61491665 C0.435294118,6.61491665 0.870588235,7.19432541 1.45098039,7.29089354 L1.45098039,0.144852189 Z" fill="#43A26B"></path>
            </g>
            <g transform="translate(170.248366, 167.062859)" id="Shape">
                <path d="M1.20915033,0.144852189 L0.386928105,5.5043832 C0.386928105,5.5043832 1.35424837,6.80805291 2.27320261,5.5043832 C2.07973856,4.44213381 1.20915033,0.144852189 1.20915033,0.144852189 Z" fill="#6DC290"></path>
                <path d="M1.20915033,0.193136253 C1.20915033,0.144852189 1.20915033,0.144852189 1.20915033,0.193136253 L0.386928105,5.5043832 C0.386928105,5.5043832 0.725490196,5.98722383 1.20915033,6.08379196 L1.20915033,0.193136253 Z" fill="#43A26B"></path>
            </g>
            <g transform="translate(176.535948, 163.200133)" id="Shape">
                <path d="M1.30588235,0.144852189 L0.0483660131,8.35314293 C0.0483660131,8.35314293 1.54771242,10.3810736 2.99869281,8.35314293 C2.66013072,6.71148478 1.30588235,0.144852189 1.30588235,0.144852189 Z" fill="#6DC290"></path>
                <path d="M1.30588235,0.193136253 C1.30588235,0.144852189 1.30588235,0.144852189 1.30588235,0.144852189 L0.0483660131,8.35314293 C0.0483660131,8.35314293 0.580392157,9.07740387 1.30588235,9.22225606 L1.30588235,0.193136253 Z" fill="#43A26B"></path>
            </g>
            <g transform="translate(191.529412, 140.023783)" id="Shape">
                <path d="M1.25751634,0.434556568 L0,8.64284731 C0,8.64284731 1.49934641,10.670778 2.9503268,8.64284731 C2.61176471,7.04947322 1.25751634,0.434556568 1.25751634,0.434556568 Z" fill="#6DC290"></path>
                <path d="M1.25751634,0.482840632 C1.25751634,0.434556568 1.25751634,0.434556568 1.25751634,0.434556568 L0,8.64284731 C0,8.64284731 0.532026144,9.36710825 1.25751634,9.51196044 L1.25751634,0.482840632 Z" fill="#43A26B"></path>
            </g>
            <g transform="translate(187.176471, 138.092421)" id="Shape">
                <path d="M1.1124183,0.386272505 L0,7.67716604 C0,7.67716604 1.30588235,9.46367638 2.61176471,7.67716604 C2.32156863,6.18036008 1.1124183,0.386272505 1.1124183,0.386272505 Z" fill="#6DC290"></path>
                <path d="M1.1124183,0.434556568 C1.1124183,0.386272505 1.1124183,0.386272505 1.1124183,0.386272505 L0,7.67716604 C0,7.67716604 0.483660131,8.30485886 1.1124183,8.44971105 L1.1124183,0.434556568 Z" fill="#43A26B"></path>
            </g>
            <g transform="translate(24.666667, 153.060480)" id="Shape">
                <path d="M1.69281046,0.482840632 L0.0967320261,10.9604823 C0.0967320261,10.9604823 1.98300654,13.5678217 3.82091503,10.9604823 C3.43398693,8.88426762 1.69281046,0.482840632 1.69281046,0.482840632 Z" fill="#6DC290"></path>
                <path d="M1.74117647,0.531124695 C1.74117647,0.482840632 1.74117647,0.434556568 1.74117647,0.434556568 L0.145098039,10.9121983 C0.145098039,10.9121983 0.822222222,11.8295955 1.78954248,12.0227317 L1.78954248,0.531124695 L1.74117647,0.531124695 Z" fill="#43A26B"></path>
            </g>
            <g transform="translate(30.954248, 135.195377)" id="Shape">
                <path d="M1.45098039,0.434556568 L0.0483660131,9.60852857 C0.0483660131,9.60852857 1.69281046,11.8778795 3.3372549,9.60852857 C2.9503268,7.82201823 1.45098039,0.434556568 1.45098039,0.434556568 Z" fill="#6DC290"></path>
                <path d="M1.45098039,0.531124695 C1.45098039,0.482840632 1.45098039,0.482840632 1.45098039,0.482840632 L0.0483660131,9.65681263 C0.0483660131,9.65681263 0.62875817,10.4776417 1.45098039,10.6224939 L1.45098039,0.531124695 Z" fill="#43A26B"></path>
            </g>
        </g>
    </g>
</svg>