<?xml version="1.0" encoding="UTF-8"?>
<svg width="255px" height="240px" viewBox="0 0 255 240" version="1.1" xmlns="http://www.w3.org/2000/svg" xmlns:xlink="http://www.w3.org/1999/xlink">
    <!-- Generator: Sketch 50 (54983) - http://www.bohemiancoding.com/sketch -->
    <title>Everest_V2</title>
    <desc>Created with Sketch.</desc>
    <defs></defs>
    <g id="Everest_V2" stroke="none" stroke-width="1" fill="none" fill-rule="evenodd">
        <g id="Group" transform="translate(8.000000, 0.000000)" fill-rule="nonzero">
            <ellipse id="Oval" fill="#62A6C4" cx="120" cy="119.5" rx="120" ry="119.5"></ellipse>
            <g transform="translate(6.000000, 53.000000)">
                <path d="M0.804981158,106.399747 C4.52801901,116.838967 9.55915125,126.675925 15.8983779,135.609489 L17.4077175,134.404963 L25.8600197,84.5175347 L11.4709815,101.380891 L0.804981158,106.399747 Z" id="Shape" fill="#57707A"></path>
                <polygon id="Shape" fill="#3F5259" points="52.0219073 113.426145 33.0042275 86.3243228 26.061265 82.6103694 19.3195478 122.761217 30.3880387 139.524196 46.4876619 127.980827 38.236605 121.25556"></polygon>
                <polygon id="Shape" fill="#92A8B0" points="46.8901525 79.5990558 50.3113224 86.3243228 52.0219073 80.9039584 67.7190399 90.7409161 66.008455 105.59673 53.531247 88.5326195 52.0219073 113.426145 33.0042275 86.3243228 37.6328691 79.9001872 43.4689825 85.9228144"></polygon>
                <polygon id="Shape" fill="#3F5259" points="86.6360971 101.882776 67.7190399 90.7409161 66.008455 105.59673 53.531247 88.5326195 52.0219073 113.426145 56.2480584 116.537836 56.2480584 124.266874 86.6360971 130.189124"></polygon>
                <polygon id="Shape" fill="#F9FCFD" points="114.206702 109.41106 124.470212 87.2277169 148.519024 100.176365"></polygon>
                <path d="M33.4067181,75.4835939 L37.6328691,79.7998101 L33.0042275,86.2239457 L25.7593971,84.3167804 L33.4067181,75.4835939 Z M56.2480584,124.266874 L56.2480584,116.537836 L52.0219073,113.426145 L38.236605,121.25556 L46.4876619,127.980827 L56.2480584,124.266874 Z M86.6360971,101.882776 L81.4037196,72.4722803 L69.3290022,75.7847253 L67.7190399,90.640539 L86.6360971,101.882776 Z M106.056268,61.2300429 L114.307324,35.4331232 L92.1703426,51.0919539 L93.6796823,57.8172209 L106.056268,61.2300429 Z M75.1651156,29.9123816 L87.8435689,34.1282207 L81.5043423,22.8859833 L75.9700968,28.507102 L75.1651156,29.9123816 Z M96.8996069,7.42790685 L105.855022,11.1418603 L107.766853,3.51319919 L103.842569,0.301131359 L96.8996069,7.42790685 Z M133.425627,65.445882 L129.199476,52.7983649 L123.765853,61.2300429 L133.425627,65.445882 Z M136.142438,51.5938395 L142.381042,65.445882 L147.61342,63.5387167 L142.984778,51.4934623 L136.142438,51.4934623 L136.142438,51.5938395 Z M164.719269,82.6103694 L169.649779,94.1537382 L177.900836,79.4986787 L164.719269,82.6103694 Z M183.334459,50.1885598 L177.900836,55.2074158 L181.925742,58.4194836 L189.371817,52.2964793 L183.334459,50.1885598 Z M202.553384,85.3205516 L206.779535,104.19145 L226.199705,101.983153 L202.553384,85.3205516 Z" id="Shape" fill="#F9FCFD"></path>
                <polygon id="Shape" fill="#3F5259" points="58.5623793 59.1221234 75.1651156 29.9123816 67.7190399 90.7409161 56.2480584 83.5137635"></polygon>
                <polygon id="Shape" fill="#3F5259" points="87.8435689 34.2285978 75.1651156 29.9123816 99.6164183 122.961971 93.5790596 57.7168438 92.06972 51.0919539"></polygon>
                <polygon id="Shape" fill="#3F5259" points="102.33323 137.416277 104.24506 90.7409161 112.99923 132.397421"></polygon>
                <polygon id="Shape" fill="#3F5259" points="197.522252 119.448772 192.591742 116.838967 189.371817 94.2541153 199.534705 104.19145"></polygon>
                <polygon id="Shape" fill="#3F5259" points="187.56061 87.2277169 183.636327 68.1560642 212.816894 81.405844 217.344913 91.5439331 214.326233 93.6518526 202.553384 85.3205516 201.044044 94.7560009"></polygon>
                <polygon id="Shape" fill="#3F5259" points="169.750402 94.2541153 183.636327 106.801255 177.900836 79.5990558"></polygon>
                <polygon id="Shape" fill="#3F5259" points="173.272194 59.5236319 167.335458 59.5236319 154.657005 73.2752973 147.61342 63.5387167 142.381042 65.445882 131.513797 34.5297291 122.155891 15.2573222 107.867475 3.51319919 105.855022 11.1418603 129.199476 52.7983649 133.425627 65.445882 133.425627 73.2752973 148.519024 100.176365 160.794986 127.980827 164.719269 126.977056 163.20993 116.838967 145.299099 75.4835939 164.719269 82.6103694 177.900836 79.5990558"></polygon>
                <polygon id="Shape" fill="#3F5259" points="181.925742 58.5198607 181.925742 62.2338141 192.289874 62.2338141 203.15712 65.7470133 200.943422 62.133437 189.371817 52.3968564"></polygon>
                <polygon id="Shape" fill="#3F5259" points="202.553384 85.3205516 206.779535 104.19145 204.666459 125.772531 196.31478 130.189124 197.522252 119.448772 199.534705 104.19145"></polygon>
                <polygon id="Shape" fill="#3F5259" points="169.750402 94.2541153 183.636327 107.704649 186.856251 126.274416 167.234836 126.274416"></polygon>
                <polygon id="Shape" fill="#3F5259" points="124.470212 87.2277169 123.66523 61.2300429 133.425627 65.445882 133.425627 73.2752973 134.733721 92.7484585"></polygon>
                <polygon id="Shape" fill="#3F5259" points="81.5043423 22.9863604 89.0510406 15.2573222 96.8996069 47.6791318 92.06972 51.0919539 87.8435689 34.2285978"></polygon>
                <polygon id="Shape" fill="#3F5259" points="123.66523 68.1560642 123.66523 61.2300429 129.199476 52.7983649 119.942193 36.2361402 114.206702 35.4331232 110.684909 46.6753606 112.99923 63.9402252"></polygon>
                <polygon id="Shape" fill="#57707A" points="118.835343 99.4737255 112.99923 63.9402252 123.66523 68.1560642 124.470212 87.2277169"></polygon>
                <polygon id="Shape" fill="#57707A" points="119.942193 36.2361402 114.206702 35.4331232 110.684909 37.1395342 105.855022 18.2686358 105.855022 11.1418603"></polygon>
                <polygon id="Shape" fill="#57707A" points="136.343684 34.5297291 131.513797 34.5297291 137.551155 51.7945937 142.884156 51.5938395"></polygon>
                <polygon id="Shape" fill="#57707A" points="177.900836 55.2074158 181.925742 58.5198607 181.925742 62.2338141 183.636327 68.1560642 187.56061 87.2277169 189.371817 94.2541153 192.591742 116.838967 192.591742 134.706094 186.856251 126.274416 183.636327 107.704649 173.272194 59.5236319"></polygon>
                <polygon id="Shape" fill="#92A8B0" points="89.0510406 15.2573222 96.8996069 7.42790685 105.855022 11.1418603 105.855022 18.2686358 110.684909 37.1395342 96.8996069 47.6791318"></polygon>
                <polygon id="Shape" fill="#57707A" points="75.1651156 29.9123816 87.3404557 75.8851024 84.5230216 89.837522 81.4037196 72.4722803 69.3290022 75.8851024"></polygon>
                <polygon id="Shape" fill="#57707A" points="46.8901525 79.5990558 58.5623793 59.1221234 56.2480584 83.5137635 52.0219073 80.9039584 50.411945 85.0194203"></polygon>
                <polygon id="Shape" fill="#57707A" points="87.5417009 75.4835939 99.5157957 122.058577 102.73572 127.980827 102.33323 137.416277 86.6360971 130.189124 86.6360971 101.882776 84.5230216 89.837522"></polygon>
                <polygon id="Shape" fill="#92A8B0" points="93.5790596 57.7168438 106.056268 61.2300429 110.684909 46.6753606 118.835343 99.4737255 114.206702 109.41106 119.942193 107.805026 120.847796 130.189124 112.99923 132.397421 104.24506 90.7409161 102.836343 126.274416 99.5157957 122.058577"></polygon>
                <polygon id="Shape" fill="#3F5259" points="119.942193 107.805026 120.847796 130.189124 127.187023 129.084976 127.187023 106.399747"></polygon>
                <polygon id="Shape" fill="#3F5259" points="131.513797 127.980827 129.199476 105.395976 148.519024 100.176365 151.839571 136.010997"></polygon>
                <polygon id="Shape" fill="#57707A" points="164.719269 82.6103694 169.750402 94.2541153 167.234836 126.274416 164.719269 126.977056 163.411175 118.043493 145.299099 75.4835939"></polygon>
                <polygon id="Shape" fill="#57707A" points="199.534705 104.19145 201.044044 94.7560009 187.56061 87.2277169 188.969327 92.7484585"></polygon>
                <path d="M226.199705,101.882776 L206.779535,104.091073 L204.666459,125.672154 L216.942422,128.081205 C220.66546,121.757446 223.885385,115.132556 226.501573,108.206535 L226.199705,101.882776 Z" id="Shape" fill="#3F5259"></path>
                <path d="M226.199705,101.280514 L226.602196,108.206535 C227.306555,106.29937 228.010913,104.291827 228.614649,102.384662 L226.199705,101.280514 Z" id="Shape" fill="#3F5259"></path>
                <polygon id="Shape" fill="#92A8B0" points="212.816894 81.405844 203.15712 65.7470133 192.289874 62.2338141 181.925742 62.2338141 183.636327 68.1560642"></polygon>
                <polygon id="Shape" fill="#57707A" points="133.425627 73.2752973 134.733721 92.7484585 148.519024 100.176365"></polygon>
                <polygon id="Shape" fill="#57707A" points="127.187023 106.399747 129.199476 105.395976 131.513797 127.980827 127.187023 129.084976"></polygon>
                <polygon id="Shape" fill="#57707A" points="148.519024 100.176365 151.839571 136.010997 159.185024 124.266874"></polygon>
                <polygon id="Shape" fill="#C6C6C5" points="192.591742 116.838967 197.522252 119.448772 196.31478 130.189124 192.591742 134.706094"></polygon>
                <path d="M6.64109455,120.151412 C26.3631329,159.398866 67.0146814,186.400311 114.005457,186.400311 C159.084401,186.400311 198.327233,161.607163 218.854252,124.869137 C215.533705,123.263103 211.810667,122.359709 207.785761,122.359709 C201.64778,122.359709 196.012912,124.467628 191.484893,128.081205 C186.252515,123.162726 179.108308,120.151412 171.360364,120.151412 C162.203703,120.151412 153.952646,124.367251 148.519024,130.992141 C142.582288,127.177811 135.639325,125.069891 128.092627,125.069891 C117.124759,125.069891 107.163117,129.687238 100.220154,137.215522 C91.0634935,126.374794 77.3788138,119.549149 62.0841718,119.549149 C49.5063412,119.549149 37.9347371,124.166497 29.180567,131.895535 C23.9481895,124.969514 15.7977552,120.452543 6.64109455,120.151412 Z" id="Shape" fill="#C7DAE5"></path>
                <g transform="translate(5.031132, 21.079195)" fill="#FFFFFF" id="Oval">
                    <ellipse cx="2.11307554" cy="60.7281573" rx="1.91183025" ry="1.90716527"></ellipse>
                    <ellipse cx="34.2116992" cy="38.0429283" rx="1.91183025" ry="1.90716527"></ellipse>
                    <ellipse cx="24.1494347" cy="94.9567551" rx="1.91183025" ry="1.90716527"></ellipse>
                    <ellipse cx="47.292643" cy="122.560463" rx="1.91183025" ry="1.90716527"></ellipse>
                    <ellipse cx="58.059266" cy="74.4798227" rx="1.91183025" ry="1.90716527"></ellipse>
                    <ellipse cx="68.5240211" cy="31.7191698" rx="1.91183025" ry="1.90716527"></ellipse>
                    <ellipse cx="98.4089466" cy="54.8059073" rx="1.91183025" ry="1.90716527"></ellipse>
                    <ellipse cx="87.5417009" cy="87.5288483" rx="1.91183025" ry="1.90716527"></ellipse>
                    <ellipse cx="102.131984" cy="2.71018223" rx="1.91183025" ry="1.90716527"></ellipse>
                    <ellipse cx="116.219155" cy="29.8120045" rx="1.91183025" ry="1.90716527"></ellipse>
                    <ellipse cx="143.487891" cy="29.8120045" rx="1.91183025" ry="1.90716527"></ellipse>
                    <ellipse cx="131.614419" cy="72.6730346" rx="1.91183025" ry="1.90716527"></ellipse>
                    <ellipse cx="141.676684" cy="100.979382" rx="1.91183025" ry="1.90716527"></ellipse>
                    <ellipse cx="175.989006" cy="89.4360135" rx="1.91183025" ry="1.90716527"></ellipse>
                    <ellipse cx="172.265968" cy="116.939344" rx="1.91183025" ry="1.90716527"></ellipse>
                    <ellipse cx="161.801213" cy="56.6126954" rx="1.91183025" ry="1.90716527"></ellipse>
                    <ellipse cx="193.899836" cy="36.135763" rx="1.91183025" ry="1.90716527"></ellipse>
                    <ellipse cx="208.791988" cy="62.6353226" rx="1.91183025" ry="1.90716527"></ellipse>
                    <ellipse cx="210.703818" cy="94.9567551" rx="1.91183025" ry="1.90716527"></ellipse>
                </g>
            </g>
        </g>
    </g>
</svg>