<?xml version="1.0" encoding="UTF-8"?>
<svg width="48px" height="48px" viewBox="0 0 48 48" version="1.1" xmlns="http://www.w3.org/2000/svg" xmlns:xlink="http://www.w3.org/1999/xlink">
    <!-- Generator: Sketch 50 (54983) - http://www.bohemiancoding.com/sketch -->
    <title>stickman</title>
    <desc>Created with Sketch.</desc>
    <defs></defs>
    <g id="stickman" stroke="none" stroke-width="1" fill="none" fill-rule="evenodd">
        <g id="noun_1441719_cc" transform="translate(9.000000, 0.000000)" fill="#000000" fill-rule="nonzero">
            <g id="Group">
                <ellipse id="Oval" cx="17.9175362" cy="4.79087984" rx="4.80120448" ry="4.79087931"></ellipse>
                <path d="M29.9446624,24.2401693 L23.0461966,19.4583781 L19.2274639,12.1387054 C19.1465607,11.9837504 19.0390134,11.85336 18.9199035,11.7378662 C18.6016348,11.3913543 18.1806163,11.1339793 17.6870418,11.0308583 L14.0645461,10.3822204 C14.0579483,10.3809743 14.0514911,10.381491 14.0448932,10.3803355 C13.5596211,10.2659668 13.0287105,10.3779032 12.6271899,10.7320159 L6.12287205,16.4610128 C6.10705842,16.4748759 6.09595465,16.4919006 6.08085663,16.50625 C6.03968126,16.5454061 6.00194955,16.5874207 5.96488659,16.6311971 C5.93210329,16.6698079 5.90035774,16.7085388 5.87184084,16.7495789 C5.84341566,16.7904989 5.81841785,16.8336691 5.79364842,16.8778117 C5.76561982,16.9277914 5.73941803,16.9778015 5.71717783,17.0299988 C5.70895193,17.0492127 5.69693269,17.0655681 5.68942241,17.0852682 L2.55998224,25.2825013 C2.24782106,26.1008383 2.65930373,27.0170065 3.47940435,27.32877 C3.66561617,27.3995117 3.85673256,27.4329834 4.04477321,27.4329834 C4.68513551,27.4329834 5.28852768,27.0438497 5.53008209,26.4115682 L8.52004583,18.579362 L10.6958044,16.6629374 L9.45480759,28.0763021 L7.37536821,36.1617798 L0.87136954,43.3484782 C0.155723262,44.1392131 0.218058222,45.358842 1.01049524,46.0732097 C1.38036009,46.4066488 1.84381811,46.570813 2.30572249,46.570813 C2.83360332,46.570813 3.35936578,46.3560914 3.74112752,45.9343954 L10.5619962,38.3975993 C10.5776549,38.3802694 10.5877086,38.3602336 10.6026068,38.342452 C10.657508,38.2773926 10.7082356,38.2090495 10.7545591,38.1362711 C10.7772418,38.1006998 10.7989641,38.0653157 10.819088,38.0285889 C10.8548256,37.9633504 10.8853376,37.8949178 10.9137332,37.8245972 C10.930656,37.7827067 10.949318,37.7418457 10.963211,37.6991333 C10.9675212,37.6858154 10.9743148,37.6740234 10.9783824,37.6605225 L13.3150807,29.9131673 L13.3508959,29.9234415 L17.6104937,36.8854777 L21.0166021,46.7013875 C21.2933466,47.499353 22.0423227,48 22.8435942,48 C23.053084,48 23.2667311,47.9654053 23.4762189,47.8931396 C24.4854083,47.5442871 25.0197198,46.4459269 24.6705843,45.438859 L21.1966747,35.4276855 C21.1956389,35.4246419 21.1937958,35.4221517 21.1927152,35.4191732 C21.1714333,35.3589762 21.138652,35.3017945 21.110972,35.2429687 C21.0823338,35.182133 21.0578997,35.1183513 21.0237157,35.0617147 C21.0221172,35.0590698 21.0214016,35.0561198 21.0197562,35.0535075 L16.7088049,27.0500203 L18.6354987,17.8718668 L20.4145974,21.2819885 C20.4217865,21.2957295 20.4333654,21.3052164 20.4408277,21.3186523 C20.4971317,21.4177002 20.5625433,21.5117614 20.6408123,21.5981302 C20.6875783,21.6507242 20.7402856,21.6936502 20.7928401,21.738857 C20.8324475,21.7725422 20.8676347,21.8096923 20.9112486,21.8399108 L20.9798898,21.8875182 C20.9947432,21.896881 21.007843,21.9084655 21.0229859,21.9173726 L28.1312126,26.8445088 C28.4079593,27.0360677 28.7234693,27.1279093 29.0364226,27.1279093 C29.5397022,27.1279093 30.0342349,26.8904154 30.3430452,26.4471069 C30.8436742,25.7276957 30.6652143,24.7397502 29.9446624,24.2401693 Z" id="Shape"></path>
            </g>
        </g>
    </g>
</svg>