<?xml version="1.0" encoding="UTF-8"?>
<svg width="48px" height="48px" viewBox="0 0 48 48" version="1.1" xmlns="http://www.w3.org/2000/svg" xmlns:xlink="http://www.w3.org/1999/xlink">
    <!-- Generator: Sketch 50 (54983) - http://www.bohemiancoding.com/sketch -->
    <title>stickwoman</title>
    <desc>Created with Sketch.</desc>
    <defs></defs>
    <g id="stickwoman" stroke="none" stroke-width="1" fill="none" fill-rule="evenodd">
        <g id="noun_67512_cc" transform="translate(18.000000, 0.000000)" fill="#000000" fill-rule="nonzero">
            <circle id="Oval" cx="6" cy="4" r="4"></circle>
            <path d="M11.0747296,26.5437043 C10.8408403,26.6442019 10.5874602,26.6981532 10.3281247,26.6981532 C9.50247379,26.6981532 8.61077085,26.1300774 8.48083235,24.8601053 L8.48029094,24.846353 L8.48029094,24.8336586 L8.60102546,14.7870739 L8.84411874,14.7876029 L8.72392563,24.8363033 C8.7380023,24.9801735 8.76453141,25.1139939 8.80026449,25.2388225 C8.81163411,25.2806084 8.82895925,25.315518 8.84303592,25.3546592 C8.86956503,25.4329415 8.89717696,25.5122817 8.93128581,25.5821011 C8.95240082,25.6244159 8.97784711,25.6593256 9.00058634,25.6989957 C9.03577802,25.7571785 9.07042829,25.8158902 9.11103407,25.8677258 C9.13972882,25.9031644 9.17058921,25.9349005 9.20199102,25.9671655 C9.2425968,26.012125 9.2842854,26.0560265 9.32868105,26.0946388 C9.36387273,26.1242591 9.40014722,26.149119 9.43642172,26.1745079 C9.48298302,26.2073019 9.52954431,26.238509 9.57827125,26.2660136 C9.61779421,26.2876999 9.65731717,26.3051548 9.69846436,26.3236675 C9.74881553,26.3453538 9.79916669,26.3654533 9.85060068,26.3813214 C9.8928307,26.3945447 9.93506071,26.4067102 9.97837354,26.416231 C10.0308903,26.4278676 10.0834072,26.4368595 10.1370068,26.4432067 C10.1803196,26.4484961 10.2247153,26.4527275 10.2680281,26.4543143 C10.2880603,26.4548433 10.3080925,26.4596037 10.3275833,26.4596037 C10.3508639,26.4596037 10.3725203,26.4521986 10.395801,26.4516697 C10.4791782,26.4479671 10.5625554,26.4384463 10.6448498,26.4220493 C10.6686718,26.41676 10.6924939,26.4125285 10.7163159,26.4067102 C11.4450543,26.2289882 12.0747146,25.5551254 11.9918788,24.4358997 L11.9648083,13.2478741 C11.9648083,10.8988754 11.314033,9 8.44726491,9 C8.44726491,9 3.21399191,9.0015868 3.04507187,9.02168632 C3.03749212,9.02221526 3.02991237,9.02380206 3.02233263,9.02433099 C2.97252287,9.03014927 2.92108888,9.03490969 2.87290336,9.04178584 L2.87236195,9.04495944 C0.584361565,9.33111309 0.0342885914,11.0982837 0.0342885914,13.2473452 L0.00721807101,24.4353708 C-0.0534198946,25.258922 0.274674812,25.8386344 0.740287762,26.1612845 L2.6049052,14.6241621 L2.85070553,14.6268067 L0.000179735718,32.2747112 L2.52802493,32.2747112 L2.52694211,46.2015604 C2.52694211,48.1750155 5.01201587,48.5209388 5.89451484,47.2467352 C5.73046749,46.9621684 5.62543387,46.6247081 5.62543387,46.2216599 L5.62543387,32.1837344 L5.86852714,32.1837344 L5.86852714,46.2211309 C5.86852714,46.3718773 5.88422804,46.5125739 5.91183997,46.6437497 C5.9134642,46.6490391 5.91562984,46.6532705 5.91671267,46.657502 C6.33792996,48.5780637 9.53008572,48.4426564 9.53008572,46.2211309 L9.53008572,32.2752401 L9.62483254,32.2752401 L12,32.2752401 L11.0747296,26.5437043 Z" id="Shape"></path>
        </g>
    </g>
</svg>